<svg width="72" height="72" viewBox="0 0 72 72" fill="none" xmlns="http://www.w3.org/2000/svg">
<path d="M37.6643 9.31641C30.984 9.31641 25.5498 14.7506 25.5498 21.4309C25.5498 28.1113 30.984 33.5455 37.6643 33.5455C44.3447 33.5455 49.7789 28.1113 49.7789 21.4309C49.7789 14.7506 44.3447 9.31641 37.6643 9.31641Z" fill="#1976D2"/>
<path fill-rule="evenodd" clip-rule="evenodd" d="M37.6663 37.5828C42.0559 37.5828 46.0318 35.8107 48.946 32.959C51.71 34.8279 53.9888 37.3627 55.55 40.3312C54.2264 40.0211 52.8466 39.8571 51.4286 39.8571C46.3392 39.8571 41.7432 41.9693 38.4693 45.3648L37.9344 41.621H37.3982L36.5201 47.7675C34.5686 50.6453 33.4286 54.1181 33.4286 57.8571C33.4286 59.2158 33.5791 60.5393 33.8644 61.8119H19.3599C18.2439 61.8119 17.3408 60.9088 17.3408 59.7928V49.6974C17.3408 42.7392 21.0145 36.5913 26.3866 32.959C29.3008 35.8107 33.2767 37.5828 37.6663 37.5828Z" fill="#1976D2"/>
<path d="M49.9592 65.2039C54.8283 65.2039 58.7755 61.2567 58.7755 56.3876C58.7755 51.5185 54.8283 47.5713 49.9592 47.5713C45.0901 47.5713 41.1429 51.5185 41.1429 56.3876C41.1429 61.2567 45.0901 65.2039 49.9592 65.2039Z" stroke="#1976D2" stroke-width="3.85714" stroke-linecap="round" stroke-linejoin="round"/>
<path d="M60.9786 67.4081L56.1847 62.6143" stroke="#1976D2" stroke-width="3.85714" stroke-linecap="round" stroke-linejoin="round"/>
</svg>
