<svg width="16" height="20" viewBox="0 0 16 20" fill="none" xmlns="http://www.w3.org/2000/svg">
<path fill-rule="evenodd" clip-rule="evenodd" d="M2.96014 0.784668C1.46488 0.784668 0.616333 2.24375 0.616333 3.53563V16.3757C0.616333 17.6676 1.46488 19.1267 2.96014 19.1267H12.9501C14.4454 19.1267 15.2939 17.6676 15.2939 16.3757V6.12629C15.2939 5.89115 15.2036 5.66501 15.0415 5.49461L10.8337 1.06966C10.6607 0.887685 10.4206 0.784668 10.1694 0.784668H2.96014ZM2.44967 3.53563C2.44967 3.21631 2.5513 2.9598 2.67448 2.80148C2.7967 2.6444 2.90496 2.618 2.96014 2.618H9.02747V4.21239C9.02747 5.73118 10.2587 6.96239 11.7775 6.96239H13.4606V16.3757C13.4606 16.6951 13.3589 16.9516 13.2358 17.1099C13.1136 17.267 13.0053 17.2934 12.9501 17.2934H2.96014C2.90496 17.2934 2.7967 17.267 2.67448 17.1099C2.5513 16.9516 2.44967 16.6951 2.44967 16.3757V3.53563ZM12.164 5.12906L10.8608 3.7586V4.21239C10.8608 4.71865 11.2712 5.12906 11.7775 5.12906H12.164ZM9.94413 10.4374C10.4504 10.4374 10.8608 10.027 10.8608 9.52075C10.8608 9.01449 10.4504 8.60409 9.94413 8.60409L5.81294 8.60408C5.30668 8.60408 4.89628 9.01449 4.89628 9.52075C4.89628 10.027 5.30668 10.4374 5.81294 10.4374L9.94413 10.4374ZM4.89889 12.9967C4.89889 12.4905 5.30929 12.0801 5.81555 12.0801H9.94674C10.453 12.0801 10.8634 12.4905 10.8634 12.9967C10.8634 13.503 10.453 13.9134 9.94674 13.9134H5.81555C5.30929 13.9134 4.89889 13.503 4.89889 12.9967Z" fill="currentColor"/>
</svg>
