<svg width="15" height="17" viewBox="0 0 15 17" fill="none" xmlns="http://www.w3.org/2000/svg">
<path d="M5 6.07129H6.25V13.357H5V6.07129Z" fill="#EB3235"/>
<path d="M8.75 6.07129H10V13.357H8.75V6.07129Z" fill="#EB3235"/>
<path d="M0 2.42871V3.643H1.25V15.7859C1.25 16.1079 1.3817 16.4168 1.61612 16.6445C1.85054 16.8722 2.16848 17.0001 2.5 17.0001H12.5C12.8315 17.0001 13.1495 16.8722 13.3839 16.6445C13.6183 16.4168 13.75 16.1079 13.75 15.7859V3.643H15V2.42871H0ZM2.5 15.7859V3.643H12.5V15.7859H2.5Z" fill="#EB3235"/>
<path d="M5 0H10V1.21429H5V0Z" fill="#EB3235"/>
</svg>
