<svg width="16" height="16" viewBox="0 0 16 16" fill="none" xmlns="http://www.w3.org/2000/svg">
<g clip-path="url(#clip0_186_1464)">
<path d="M15 9C14.7348 9 14.4804 9.10536 14.2929 9.29289C14.1054 9.48043 14 9.73478 14 10V14H2V10C2 9.73478 1.89464 9.48043 1.70711 9.29289C1.51957 9.10536 1.26522 9 1 9C0.734784 9 0.48043 9.10536 0.292893 9.29289C0.105357 9.48043 0 9.73478 0 10L0 15C0 15.2652 0.105357 15.5196 0.292893 15.7071C0.48043 15.8946 0.734784 16 1 16H15C15.2652 16 15.5196 15.8946 15.7071 15.7071C15.8946 15.5196 16 15.2652 16 15V10C16 9.73478 15.8946 9.48043 15.7071 9.29289C15.5196 9.10536 15.2652 9 15 9ZM7.29 11.71C7.37269 11.8162 7.48175 11.8988 7.60633 11.9497C7.7309 12.0006 7.86663 12.0179 8 12C8.13161 12.0008 8.26207 11.9755 8.38391 11.9258C8.50574 11.876 8.61656 11.8027 8.71 11.71L11.71 8.71C11.8147 8.62035 11.8997 8.51003 11.9597 8.38597C12.0197 8.26191 12.0535 8.12677 12.0588 7.98905C12.0641 7.85133 12.0409 7.714 11.9906 7.58568C11.9404 7.45735 11.8641 7.3408 11.7667 7.24335C11.6692 7.1459 11.5526 7.06964 11.4243 7.01936C11.296 6.96909 11.1587 6.94588 11.0209 6.9512C10.8832 6.95652 10.7481 6.99025 10.624 7.05027C10.5 7.1103 10.3896 7.19532 10.3 7.3L9 8.59V1C9 0.734784 8.89464 0.48043 8.70711 0.292893C8.51957 0.105357 8.26522 0 8 0C7.73478 0 7.48043 0.105357 7.29289 0.292893C7.10536 0.48043 7 0.734784 7 1V8.59L5.71 7.29C5.62731 7.18384 5.51825 7.1012 5.39367 7.05031C5.2691 6.99943 5.13337 6.98208 5 7C4.80138 6.99885 4.60691 7.05687 4.44139 7.16667C4.27587 7.27647 4.1468 7.43307 4.07063 7.61652C3.99446 7.79996 3.97465 8.00193 4.01372 8.19668C4.05279 8.39143 4.14897 8.57013 4.29 8.71L7.29 11.71Z" fill="currentColor"/>
</g>
<defs>
<clipPath id="clip0_186_1464">
<rect width="16" height="16" fill="currentColor"/>
</clipPath>
</defs>
</svg>
