<svg width="16" height="16" viewBox="0 0 16 16" fill="none" xmlns="http://www.w3.org/2000/svg">
<g clip-path="url(#clip0_186_1457)">
<path d="M15.71 4.30985L11.64 0.209846C11.4401 0.0581731 11.196 -0.0239258 10.945 -0.0239258C10.6941 -0.0239258 10.45 0.0581731 10.25 0.209846L0.250024 10.2098C0.138346 10.3047 0.0556614 10.4292 0.0114456 10.5689C-0.0327702 10.7086 -0.0367288 10.858 2.35494e-05 10.9998V14.9998C2.35494e-05 15.2651 0.10538 15.5194 0.292917 15.707C0.480453 15.8945 0.734807 15.9998 1.00002 15.9998H13C13.2652 15.9998 13.5196 15.8945 13.7071 15.707C13.8947 15.5194 14 15.2651 14 14.9998C14 14.7346 13.8947 14.4803 13.7071 14.2927C13.5196 14.1052 13.2652 13.9998 13 13.9998H7.41002L15.66 5.69985C15.8471 5.51995 15.9569 5.27435 15.9663 5.01496C15.9756 4.75558 15.8837 4.50272 15.71 4.30985ZM4.59002 13.9998H2.00002V11.3998L8.00002 5.39985L10.56 7.99985L4.59002 13.9998ZM12 6.56985L9.38002 3.99985L11 2.31985L13.59 4.91985L12 6.56985Z" fill="currentColor"/>
</g>
<defs>
<clipPath id="clip0_186_1457">
<rect width="16" height="16" fill="white"/>
</clipPath>
</defs>
</svg>
