<svg width="70" height="70" viewBox="0 0 70 70" fill="none" xmlns="http://www.w3.org/2000/svg">
<path d="M58.4199 19.7285L43.709 5.01758C43.2988 4.60742 42.7451 4.375 42.1641 4.375H13.125C11.915 4.375 10.9375 5.35254 10.9375 6.5625V63.4375C10.9375 64.6475 11.915 65.625 13.125 65.625H56.875C58.085 65.625 59.0625 64.6475 59.0625 63.4375V21.2803C59.0625 20.6992 58.8301 20.1387 58.4199 19.7285ZM54.0176 22.2852H41.1523V9.41992L54.0176 22.2852ZM54.1406 60.7031H15.8594V9.29688H36.5039V24.0625C36.5039 24.824 36.8064 25.5542 37.3448 26.0927C37.8833 26.6311 38.6135 26.9336 39.375 26.9336H54.1406V60.7031Z" fill="#375DE5"/>
</svg>
