<svg width="17" height="15" viewBox="0 0 17 15" fill="none" xmlns="http://www.w3.org/2000/svg">
<path d="M0.285767 3.14273H7.88577M7.88577 3.14273C7.88577 4.3262 8.85795 5.28559 10.0572 5.28559C11.2564 5.28559 12.2286 4.3262 12.2286 3.14273M7.88577 3.14273C7.88577 1.95927 8.85795 0.999878 10.0572 0.999878C11.2564 0.999878 12.2286 1.95927 12.2286 3.14273M12.2286 3.14273H16.5715M16.5715 11.7142L8.97148 11.7142M8.97148 11.7142C8.97148 10.5307 7.9993 9.57131 6.80005 9.57131C5.6008 9.57131 4.62862 10.5307 4.62862 11.7142M8.97148 11.7142C8.97148 12.8976 7.9993 13.857 6.80005 13.857C5.6008 13.857 4.62862 12.8976 4.62862 11.7142M4.62862 11.7142H0.285767" stroke="currentColor" stroke-width="2"/>
</svg>
