<svg width="22" height="22" viewBox="0 0 22 22" fill="none" xmlns="http://www.w3.org/2000/svg">
<path d="M11 13.75C12.5188 13.75 13.75 12.5188 13.75 11C13.75 9.48122 12.5188 8.25 11 8.25C9.48122 8.25 8.25 9.48122 8.25 11C8.25 12.5188 9.48122 13.75 11 13.75Z" stroke="#1976D2" stroke-width="1.375" stroke-linecap="round" stroke-linejoin="round"/>
<path d="M16.55 13.25C16.4502 13.4762 16.4204 13.7271 16.4645 13.9704C16.5086 14.2137 16.6246 14.4382 16.7975 14.615L16.8425 14.66C16.982 14.7993 17.0926 14.9647 17.1681 15.1468C17.2436 15.3289 17.2824 15.5241 17.2824 15.7213C17.2824 15.9184 17.2436 16.1136 17.1681 16.2957C17.0926 16.4778 16.982 16.6432 16.8425 16.7825C16.7032 16.922 16.5378 17.0326 16.3557 17.1081C16.1736 17.1836 15.9784 17.2224 15.7812 17.2224C15.5841 17.2224 15.3889 17.1836 15.2068 17.1081C15.0247 17.0326 14.8593 16.922 14.72 16.7825L14.675 16.7375C14.4982 16.5646 14.2737 16.4486 14.0304 16.4045C13.7871 16.3604 13.5362 16.3902 13.31 16.49C13.0882 16.5851 12.899 16.7429 12.7657 16.9442C12.6325 17.1454 12.561 17.3812 12.56 17.6225V17.75C12.56 18.1478 12.402 18.5294 12.1207 18.8107C11.8394 19.092 11.4578 19.25 11.06 19.25C10.6622 19.25 10.2806 19.092 9.99934 18.8107C9.71804 18.5294 9.56 18.1478 9.56 17.75V17.6825C9.55419 17.4343 9.47384 17.1935 9.32938 16.9915C9.18493 16.7896 8.98305 16.6357 8.75 16.55C8.52379 16.4502 8.27286 16.4204 8.02956 16.4645C7.78626 16.5086 7.56176 16.6246 7.385 16.7975L7.34 16.8425C7.20069 16.982 7.03526 17.0926 6.85316 17.1681C6.67106 17.2436 6.47587 17.2824 6.27875 17.2824C6.08163 17.2824 5.88644 17.2436 5.70434 17.1681C5.52224 17.0926 5.35681 16.982 5.2175 16.8425C5.07804 16.7032 4.9674 16.5378 4.89191 16.3557C4.81642 16.1736 4.77757 15.9784 4.77757 15.7812C4.77757 15.5841 4.81642 15.3889 4.89191 15.2068C4.9674 15.0247 5.07804 14.8593 5.2175 14.72L5.2625 14.675C5.4354 14.4982 5.55139 14.2737 5.5955 14.0304C5.63962 13.7871 5.60984 13.5362 5.51 13.31C5.41493 13.0882 5.25707 12.899 5.05585 12.7657C4.85463 12.6325 4.61884 12.561 4.3775 12.56H4.25C3.85218 12.56 3.47064 12.402 3.18934 12.1207C2.90804 11.8394 2.75 11.4578 2.75 11.06C2.75 10.6622 2.90804 10.2806 3.18934 9.99934C3.47064 9.71804 3.85218 9.56 4.25 9.56H4.3175C4.56575 9.55419 4.8065 9.47384 5.00847 9.32938C5.21045 9.18493 5.36429 8.98305 5.45 8.75C5.54984 8.52379 5.57962 8.27286 5.5355 8.02956C5.49139 7.78626 5.3754 7.56176 5.2025 7.385L5.1575 7.34C5.01804 7.20069 4.9074 7.03526 4.83191 6.85316C4.75642 6.67106 4.71757 6.47587 4.71757 6.27875C4.71757 6.08163 4.75642 5.88644 4.83191 5.70434C4.9074 5.52224 5.01804 5.35681 5.1575 5.2175C5.29681 5.07804 5.46224 4.9674 5.64434 4.89191C5.82644 4.81642 6.02163 4.77757 6.21875 4.77757C6.41587 4.77757 6.61106 4.81642 6.79316 4.89191C6.97526 4.9674 7.14069 5.07804 7.28 5.2175L7.325 5.2625C7.50176 5.4354 7.72626 5.55139 7.96956 5.5955C8.21285 5.63962 8.46379 5.60984 8.69 5.51H8.75C8.97183 5.41493 9.16101 5.25707 9.29427 5.05585C9.42753 4.85463 9.49904 4.61884 9.5 4.3775V4.25C9.5 3.85218 9.65804 3.47064 9.93934 3.18934C10.2206 2.90804 10.6022 2.75 11 2.75C11.3978 2.75 11.7794 2.90804 12.0607 3.18934C12.342 3.47064 12.5 3.85218 12.5 4.25V4.3175C12.501 4.55884 12.5725 4.79463 12.7057 4.99585C12.839 5.19707 13.0282 5.35493 13.25 5.45C13.4762 5.54984 13.7271 5.57962 13.9704 5.5355C14.2137 5.49139 14.4382 5.3754 14.615 5.2025L14.66 5.1575C14.7993 5.01804 14.9647 4.9074 15.1468 4.83191C15.3289 4.75642 15.5241 4.71757 15.7213 4.71757C15.9184 4.71757 16.1136 4.75642 16.2957 4.83191C16.4778 4.9074 16.6432 5.01804 16.7825 5.1575C16.922 5.29681 17.0326 5.46224 17.1081 5.64434C17.1836 5.82644 17.2224 6.02163 17.2224 6.21875C17.2224 6.41587 17.1836 6.61106 17.1081 6.79316C17.0326 6.97526 16.922 7.14069 16.7825 7.28L16.7375 7.325C16.5646 7.50176 16.4486 7.72626 16.4045 7.96956C16.3604 8.21285 16.3902 8.46379 16.49 8.69V8.75C16.5851 8.97183 16.7429 9.16101 16.9442 9.29427C17.1454 9.42753 17.3812 9.49904 17.6225 9.5H17.75C18.1478 9.5 18.5294 9.65804 18.8107 9.93934C19.092 10.2206 19.25 10.6022 19.25 11C19.25 11.3978 19.092 11.7794 18.8107 12.0607C18.5294 12.342 18.1478 12.5 17.75 12.5H17.6825C17.4412 12.501 17.2054 12.5725 17.0042 12.7057C16.8029 12.839 16.6451 13.0282 16.55 13.25V13.25Z" stroke="#1976D2" stroke-width="1.375" stroke-linecap="round" stroke-linejoin="round"/>
</svg>
